<?xml version="1.0" encoding="UTF-8" standalone="no"?>
<!-- Created with Inkscape (http://www.inkscape.org/) -->

<svg
   xmlns:dc="http://purl.org/dc/elements/1.1/"
   xmlns:cc="http://creativecommons.org/ns#"
   xmlns:rdf="http://www.w3.org/1999/02/22-rdf-syntax-ns#"
   xmlns:svg="http://www.w3.org/2000/svg"
   xmlns="http://www.w3.org/2000/svg"
   xmlns:sodipodi="http://sodipodi.sourceforge.net/DTD/sodipodi-0.dtd"
   xmlns:inkscape="http://www.inkscape.org/namespaces/inkscape"
   width="437.7308"
   height="395.74609"
   id="svg2"
   version="1.1"
   inkscape:version="0.47 r22583"
   sodipodi:docname="karate kick.svg">
  <defs
     id="defs4">
    <inkscape:perspective
       sodipodi:type="inkscape:persp3d"
       inkscape:vp_x="0 : 526.18109 : 1"
       inkscape:vp_y="0 : 1000 : 0"
       inkscape:vp_z="744.09448 : 526.18109 : 1"
       inkscape:persp3d-origin="372.04724 : 350.78739 : 1"
       id="perspective10" />
    <inkscape:perspective
       id="perspective2824"
       inkscape:persp3d-origin="0.5 : 0.33333333 : 1"
       inkscape:vp_z="1 : 0.5 : 1"
       inkscape:vp_y="0 : 1000 : 0"
       inkscape:vp_x="0 : 0.5 : 1"
       sodipodi:type="inkscape:persp3d" />
  </defs>
  <sodipodi:namedview
     id="base"
     pagecolor="#ffffff"
     bordercolor="#666666"
     borderopacity="1.0"
     inkscape:pageopacity="0.0"
     inkscape:pageshadow="2"
     inkscape:zoom="1.111824"
     inkscape:cx="218.86541"
     inkscape:cy="197.87304"
     inkscape:document-units="px"
     inkscape:current-layer="layer1"
     showgrid="false"
     inkscape:window-width="911"
     inkscape:window-height="675"
     inkscape:window-x="-4"
     inkscape:window-y="40"
     inkscape:window-maximized="1" />
  <metadata
     id="metadata7">
    <rdf:RDF>
      <cc:Work
         rdf:about="">
        <dc:format>image/svg+xml</dc:format>
        <dc:type
           rdf:resource="http://purl.org/dc/dcmitype/StillImage" />
        <dc:title />
      </cc:Work>
    </rdf:RDF>
  </metadata>
  <g
     inkscape:label="Ebene 1"
     inkscape:groupmode="layer"
     id="layer1"
     transform="translate(-45.840611,-191.44068)">
    <path
       style="fill:#ffffff"
       d="m 376.89637,584.89425 c -7.70619,-3.50344 -13.64388,-9.57352 -18.96517,-19.388 -8.83784,-16.30037 -27.0891,-43.02581 -38.42349,-56.26378 -4.15202,-4.84934 -8.01602,-11.40166 -14.44804,-24.5 -8.62304,-17.56023 -11.2236,-21.8866 -16.75871,-27.88028 -1.52376,-1.65 -2.66264,-3.9 -2.53085,-5 0.38981,-3.25365 -0.98336,-4.49306 -4.25338,-3.83906 -1.85958,0.37192 -5.12961,-0.18245 -8.71122,-1.4768 -8.45302,-3.05481 -16.52179,-4.02334 -38.23408,-4.58938 -10.725,-0.2796 -20.4,-0.72026 -21.5,-0.97925 -1.1,-0.25898 -5.21218,-1.16165 -9.13817,-2.00592 -3.926,-0.84427 -7.526,-1.63754 -8,-1.76281 -0.47401,-0.12528 -2.35956,0.12644 -4.19012,0.55937 -1.83055,0.43293 -4.30555,0.91093 -5.5,1.06222 -1.19444,0.15129 -5.90109,0.83703 -10.45922,1.52387 -9.24092,1.39248 -24.63952,0.9832 -27.71249,-0.73657 -2.31804,-1.29727 -25.01688,-4.00521 -40.99999,-4.89123 -8.470385,-0.46955 -12.455865,-0.23662 -17.330775,1.01289 -3.48192,0.89247 -9.57902,1.62267 -13.54911,1.62267 0,0 -3.699701,0.31154 -5.446321,-0.64865 -1.74662,-0.96019 -2.972909,-2.67235 -2.972909,-2.67235 -0.66049,-1.82655 -1.20089,-5.4088 -1.20089,-7.96057 0,-5.33732 0.001,-5.3362 -10.08812,-11.25834 -8.63123,-5.06639 -9.67418,-6.6883 -10.44926,-16.24995 -0.66676,-8.22523 0.0232,-9.22179 8.03738,-11.60942 11.73939,-3.49746 12.45352,-3.32503 12.48469,3.01442 0.0239,4.87038 5.4301,11.0588 12.59309,14.41529 2.24279,1.05094 5.38913,2.93652 6.99188,4.19019 2.74607,2.14795 3.72181,2.26927 16.922225,2.10403 15.16666,-0.18984 40.27496,-2.66916 68.50811,-6.76482 13.09333,-1.89939 19.80794,-1.93997 29.16203,-0.17624 8.9547,1.68843 35.83797,2.18406 35.83797,0.66073 0,-0.57438 1.0125,-1.04518 2.25,-1.04623 2.66533,-0.002 32.6954,-4.94725 48.05076,-7.91243 5.94042,-1.14711 13.90137,-2.08566 17.69099,-2.08566 3.78962,0 7.16833,-0.45 7.50825,-1 0.34847,-0.56384 5.1936,-1 11.10868,-1 11.03117,0 15.36625,-1.21612 17.315,-4.8574 0.54064,-1.01018 4.78268,-4.39114 9.42677,-7.51323 4.6441,-3.1221 8.99712,-6.34324 9.6734,-7.15811 3.80462,-4.58428 -2.455,-22.82482 -10.16434,-29.6189 l -4.13903,-3.64764 -11.11024,3.8015 c -10.0092,3.42475 -12.99316,3.95774 -30.11024,5.37817 -10.45,0.86717 -21.11528,1.85398 -23.70062,2.19291 -3.23237,0.42375 -6.35591,0.0693 -10,-1.1348 -9.67413,-3.19654 -36.37854,-22.42463 -39.20152,-28.22643 -0.93217,-1.9158 -1.59786,-5.83429 -1.59786,-9.40561 0,-4.947 0.46767,-6.73482 2.43717,-9.31698 2.2673,-2.97257 2.9644,-3.23517 10.00082,-3.76734 12.0409,-0.91065 15.94983,2.00325 17.16252,12.79372 0.8281,7.36841 1.6592,8.48014 6.33956,8.48014 2.03236,0 7.03975,0.88941 11.12756,1.97646 8.68598,2.30984 21.5083,2.5859 30.43237,0.6552 6.21053,-1.34363 25.02163,-10.12362 27.29778,-11.42194 2.87455,-1.63964 7.28689,-2.20972 12.07557,-2.20972 0,0 5.96018,0.81392 9.94338,-1.01185 3.79648,-1.74019 8.44591,-5.23815 8.44591,-5.23815 5.32543,-3.4375 9.69493,-6.83485 9.70998,-7.54966 0.0497,-2.36057 -3.07185,-7.34857 -6.46125,-10.3245 -1.83518,-1.61131 -5.4693,-7.08004 -8.07582,-12.15274 -2.60653,-5.07271 -5.34584,-9.58296 -6.08735,-10.02279 -0.74151,-0.43983 -1.3482,-2.34587 -1.3482,-4.23565 0,-3.52264 -1.5655,-11.17786 -3.11909,-15.25223 -1.39194,-3.65043 -2.19495,-12.72493 -1.46864,-16.5965 0.86189,-4.59428 4.84815,-9.29458 8.57721,-10.11362 1.81789,-0.39928 3.70177,-1.88471 4.94841,-3.90181 2.25997,-3.65672 5.74892,-5.6005 10.05246,-5.6005 1.70556,0 3.44001,-0.77634 4.21891,-1.88838 1.4799,-2.11285 7.57347,-4.09758 12.60648,-4.10604 3.53056,-0.006 6.44129,-1.19618 9.68426,-3.96002 2.61614,-2.22962 13.32543,-5.06735 18.7349,-4.96434 l 4.2651,0.0812 -3,1.37368 c -1.65,0.75552 -4.2375,1.39397 -5.75,1.41878 -2.03997,0.0335 -2.75,0.54625 -2.75,1.98608 0,1.06755 -0.45,2.2191 -1,2.55902 -0.55,0.33992 -1,1.30487 -1,2.14434 0,1.29291 1.18506,1.4271 7.75,0.87757 l 7.75,-0.64874 -2.48506,1.99502 c -3.64234,2.9241 -1.62277,3.84171 2.8824,1.30967 2.13123,-1.19783 4.9387,-2.16191 6.23881,-2.14242 l 2.36385,0.0354 -2.46937,1.36715 c -2.10489,1.16536 -2.42517,1.97946 -2.16985,5.51553 0.16473,2.2816 -0.12156,4.68794 -0.6362,5.34741 -0.51464,0.65947 -1.18358,2.21154 -1.48653,3.44903 -0.50648,2.06893 -0.20602,2.25 3.73345,2.25 2.35634,0 6.02671,-0.69096 8.15638,-1.53547 l 3.87212,-1.53548 -2.88346,2.60231 c -2.23205,2.01441 -3.7502,2.53973 -6.72008,2.3253 -5.21078,-0.37624 -9.89646,3.0201 -9.89646,7.17328 0,2.9401 2.15189,4.15134 3.5,1.97006 1.17271,-1.89749 7.97079,-0.96925 12.98751,1.77336 6.19072,3.38442 6.76488,5.372 2.04487,7.07877 -4.41523,1.59657 -4.53895,3.80005 -0.28238,5.02909 1.7875,0.51612 2.4625,0.97899 1.5,1.02859 -0.9625,0.0496 -1.75,0.76519 -1.75,1.59019 0,1.07544 1.09751,1.5 3.87756,1.5 3.84597,0 5.24977,0.91983 6.41891,4.20593 0.54048,1.51913 0.25635,1.49216 -2.59477,-0.24626 -1.76093,-1.07371 -4.13576,-1.95388 -5.27739,-1.95593 -2.14275,-0.004 -6.42431,3.79745 -6.42431,5.70372 0,1.22789 2.30581,2.29254 4.96516,2.29254 0.99087,0 2.03693,0.9 2.32459,2 0.85194,3.25781 5.95357,2.49888 14.56176,-2.16624 8.04522,-4.36002 11.19053,-4.64887 14.50713,-1.33226 0.82418,0.82418 1.91996,1.4985 2.43507,1.4985 3.57875,0 9.20629,8.35925 9.20629,13.67518 0,5.97024 -8.27804,12.74388 -18.11272,14.82102 -1.863,0.39348 -5.74978,2.05083 -8.63728,3.683 -5.99875,3.39081 -5.8467,2.7322 -4.2781,18.53158 0.53454,5.38407 1.17986,13.16422 1.43405,17.28922 0.25418,4.125 0.7334,9.3 1.06493,11.5 0.33153,2.2 -0.10004,8.05 -0.95905,13 -1.44232,8.31135 -3.32656,20.10631 -5.07031,31.73913 -0.39071,2.60651 -1.32489,5.24911 -2.07595,5.87244 -0.75107,0.62333 -1.36557,2.2328 -1.36557,3.57662 0,1.34381 -0.52702,3.42621 -1.17115,4.62755 -1.28365,2.39406 -3.64366,15.41259 -4.67359,25.78081 -0.36039,3.6281 -1.19392,7.24548 -1.85228,8.03862 -0.65836,0.79314 -1.26444,3.4497 -1.34685,5.90345 -0.27689,8.24457 -4.14078,13.96138 -9.43623,13.96138 -0.7623,0 -2.99113,1.95885 -4.95295,4.35299 -2.77327,3.38442 -3.56695,5.24573 -3.56695,8.36514 0,2.64654 -0.76583,4.98576 -2.25,6.8726 -2.20536,2.8037 -2.24455,3.31724 -1.9754,25.88486 0.24264,20.34431 -0.77339,45.2849 -2.07864,51.02441 -0.25016,1.1 -1.03198,5.375 -1.73739,9.5 -2.18779,12.79343 -8.36128,23.36853 -15.93624,27.29856 -6.35683,3.29804 -10.82689,3.35702 -17.69739,0.2335 l 0,6e-5 z m -21.94906,-90.28206 c -0.61139,-18.2753 -1.99028,-27.79927 -4.3512,-30.05365 -0.97709,-0.93299 -2.09063,-2.71813 -2.47453,-3.96697 -1.02304,-3.32793 -9.33935,-7.22938 -15.4101,-7.22938 -5.57205,0 -31.83011,-2.65181 -35.94354,-3.62996 l -2.69651,-0.64121 2.99689,3.198 c 1.64829,1.7589 4.80778,3.99904 7.02108,4.97809 2.2133,0.97905 4.82562,2.63846 5.80516,3.68759 0.97954,1.04912 5.02005,5.1682 8.97892,9.15351 l 7.19795,7.24603 6.429,0.004 c 13.89167,0.009 17.88663,5.1671 13.16858,17.00398 l -1.79365,4.5 5.06387,5.25 c 2.78514,2.8875 5.38735,5.25 5.7827,5.25 0.39536,0 0.49678,-6.6375 0.22538,-14.75 l 0,-3e-5 z"
       id="path2830"
       sodipodi:nodetypes="csssssssssssssssssczcssssssssssssssssssscccssssssssssssczcssssssssssssscccsssscccscccsssscccsssssssssssssssssssssssssssssssssssssssscccssscccssccccccscc" />
  </g>
</svg>
